#!OML:ASF X:\für Bonn\!DataBase\2005_08_11_Bastian_Final\c3d\Bastian.ASF
:FULLY-SPECIFIED
:DEGREES
166
root 1.30617 16.1474 18.4573 -556.121 -18.2212 -175.21
lowerback 60.6097 0.0231677 12.2254
upperback 21.327 -5.79926 1.707
thorax 3.10742 -6.70887 -1.5899
lowerneck -8.55715 -10.0878 -8.78415
upperneck -22.7871 -13.0242 20.1529
head -3.28074 -8.35333 7.72543
rclavicle -5.96354e-015 1.56046e-014
rhumerus 4.21845 19.9451 -71.7229
rradius 41.9199
rwrist -10.6394
rhand -17.4888 5.20228
rfingers 7.12502
rthumb 8.76367 -24.5958
lclavicle -5.96354e-015 1.56046e-014
lhumerus -12.3712 -14.1731 76.1964
lradius 29.4409
lwrist 26.3595
lhand -10.821 -11.7461
lfingers 7.12502
lthumb 15.193 17.6761
rfemur -21.2365 -13.7544 24.2852
rtibia 56.4258
rfoot -19.5538 -3.95089
rtoes -24.8493
lfemur -23.8873 2.02773 -19.6022
ltibia 41.0673
lfoot 1.42214 -6.93226
ltoes -9.72613
167
root 1.29534 16.0841 18.4517 -556.15 -18.0615 -175.232
lowerback 61.2064 0.151243 12.0543
upperback 21.3181 -5.83057 1.6826
thorax 3.08444 -6.78808 -1.50738
lowerneck -9.05096 -10.0325 -8.67087
upperneck -22.7296 -12.9827 20.1862
head -3.1977 -8.35058 7.68693
rclavicle -1.15295e-014 -3.00165e-014
rhumerus 4.26614 20.4557 -71.6005
rradius 42.198
rwrist -10.7338
rhand -17.5381 5.3059
rfingers 7.12502
rthumb 8.71608 -24.4941
lclavicle -1.15295e-014 -3.00165e-014
lhumerus -12.0987 -14.621 75.794
lradius 29.5526
lwrist 26.1873
lhand -10.9586 -11.5181
lfingers 7.12502
lthumb 15.0604 17.9141
rfemur -21.9129 -13.5605 24.2783
rtibia 57.6561
rfoot -19.8153 -4.33797
rtoes -24.2917
lfemur -24.538 2.0914 -19.6179
ltibia 42.3591
lfoot 0.967595 -6.95681
ltoes -9.87895
168
root 1.28472 16.0134 18.4462 -556.212 -17.8919 -175.237
lowerback 61.8462 0.262595 11.9033
upperback 21.2827 -5.86306 1.65007
thorax 3.03475 -6.86611 -1.43712
lowerneck -9.51227 -9.98468 -8.60892
upperneck -22.6447 -12.9458 20.2304
head -3.10602 -8.34297 7.65958
rclavicle 3.57812e-014 -1.37161e-014
rhumerus 4.22108 21.0011 -71.4777
rradius 42.5242
rwrist -10.8626
rhand -17.5601 5.35097
rfingers 7.12502
rthumb 8.69487 -24.45
lclavicle 3.57812e-014 -1.37161e-014
lhumerus -11.8496 -14.9629 75.369
lradius 29.6546
lwrist 25.9021
lhand -11.0555 -11.3213
lfingers 7.12502
lthumb 14.967 18.1179
rfemur -22.6215 -13.3632 24.2906
rtibia 58.9725
rfoot -20.0351 -4.73632
rtoes -23.8302
lfemur -25.2149 2.13536 -19.6059
ltibia 43.7572
lfoot 0.414955 -6.94662
ltoes -9.90904
169
root 1.2747 15.9353 18.4409 -556.243 -17.7707 -175.294
lowerback 62.3866 0.397625 11.7148
upperback 21.2978 -5.915 1.6359
thorax 3.04601 -6.95709 -1.33693
lowerneck -9.96784 -9.94283 -8.57658
upperneck -22.6001 -12.9177 20.2825
head -3.02386 -8.34302 7.64263
rclavicle -1.03368e-014 -4.27387e-014
rhumerus 4.20084 21.6136 -71.2967
rradius 42.8744
rwrist -11.1616
rhand -17.6775 5.38114
rfingers 7.12502
rthumb 8.58159 -24.4245
lclavicle -1.03368e-014 -4.27387e-014
lhumerus -11.5223 -15.3424 74.9195
lradius 29.7317
lwrist 25.6377
lhand -11.1415 -11.1237
lfingers 7.12502
lthumb 14.8841 18.3216
rfemur -23.408 -13.2119 24.2505
rtibia 60.3698
rfoot -20.2343 -5.10556
rtoes -23.2416
lfemur -25.9798 2.18754 -19.6704
ltibia 45.2517
lfoot -0.143767 -6.95736
ltoes -9.83276
170
root 1.26547 15.8489 18.4358 -556.294 -17.6331 -175.341
lowerback 62.8992 0.517063 11.5588
upperback 21.3358 -5.98434 1.59016
thorax 3.08429 -7.05028 -1.28407
lowerneck -10.2824 -9.89324 -8.6398
upperneck -22.6523 -12.8547 20.4768
head -2.97587 -8.33797 7.70314
rclavicle -5.80451e-014 2.34566e-014
rhumerus 4.13961 22.1646 -71.1905
rradius 43.2005
rwrist -11.3931
rhand -17.7536 5.44475
rfingers 7.12502
rthumb 8.50809 -24.3639
lclavicle -5.80451e-014 2.34566e-014
lhumerus -11.1394 -15.6409 74.4135
lradius 29.7288
lwrist 25.3322
lhand -11.2239 -11.0392
lfingers 7.12502
lthumb 14.8048 18.412
rfemur -24.2411 -13.0474 24.2332
rtibia 61.8262
rfoot -20.3714 -5.35092
rtoes -22.0763
lfemur -26.7729 2.23071 -19.7141
ltibia 46.8267
lfoot -0.762617 -6.94201
ltoes -9.78003
171
root 1.25686 15.7566 18.4313 -556.323 -17.5113 -175.392
lowerback 63.3467 0.647947 11.3927
upperback 21.3992 -6.06026 1.56191
thorax 3.1549 -7.14849 -1.213
lowerneck -10.5889 -9.85308 -8.72832
upperneck -22.7114 -12.8063 20.6416
head -2.93077 -8.33746 7.75889
rclavicle -1.66979e-014 -1.19271e-015
rhumerus 4.11145 22.7742 -71.0318
rradius 43.5268
rwrist -11.6827
rhand -17.9086 5.47906
rfingers 7.12502
rthumb 8.35858 -24.3356
lclavicle -1.66979e-014 -1.19271e-015
lhumerus -10.7162 -15.9337 73.883
lradius 29.7467
lwrist 25.049
lhand -11.2571 -10.894
lfingers 7.12502
lthumb 14.7728 18.5596
rfemur -25.1371 -12.7778 24.2327
rtibia 63.3301
rfoot -20.4666 -5.66238
rtoes -20.7195
lfemur -27.6399 2.29234 -19.7731
ltibia 48.4639
lfoot -1.41762 -6.95557
ltoes -9.81386
172
root 1.24886 15.6613 18.4267 -556.393 -17.3916 -175.414
lowerback 63.8241 0.747929 11.2953
upperback 21.4576 -6.13272 1.51746
thorax 3.22457 -7.23763 -1.18881
lowerneck -10.8224 -9.81868 -8.77726
upperneck -22.7989 -12.7639 20.8027
head -2.9079 -8.34445 7.81354
rclavicle 8.74653e-015 4.33351e-014
rhumerus 4.04719 23.3125 -70.9274
rradius 43.8275
rwrist -11.9554
rhand -18.041 5.57506
rfingers 7.12502
rthumb 8.23074 -24.2446
lclavicle 8.74653e-015 4.33351e-014
lhumerus -10.2553 -16.4443 73.2817
lradius 29.7647
lwrist 24.8959
lhand -11.3633 -10.7742
lfingers 7.12502
lthumb 14.6705 18.6868
rfemur -26.0189 -12.4484 24.2671
rtibia 64.862
rfoot -20.5472 -6.01984
rtoes -19.8765
lfemur -28.503 2.32264 -19.7925
ltibia 50.1643
lfoot -2.10804 -6.98541
ltoes -9.494
173
root 1.24148 15.5587 18.4232 -556.446 -17.2951 -175.469
lowerback 64.2691 0.867431 11.1523
upperback 21.5358 -6.22503 1.49126
thorax 3.31859 -7.34433 -1.12386
lowerneck -10.9838 -9.76889 -8.91286
upperneck -22.9748 -12.6881 21.0386
head -2.91366 -8.34467 7.91941
rclavicle 4.21423e-014 2.76311e-014
rhumerus 4.03498 23.855 -70.7945
rradius 44.1185
rwrist -12.2641
rhand -18.1271 5.62629
rfingers 7.12502
rthumb 8.14768 -24.1966
lclavicle 4.21423e-014 2.76311e-014
lhumerus -9.78123 -16.9198 72.6737
lradius 29.8147
lwrist 24.837
lhand -11.5328 -10.6979
lfingers 7.12502
lthumb 14.5072 18.7749
rfemur -26.9703 -12.1435 24.2666
rtibia 66.4325
rfoot -20.655 -6.37168
rtoes -19.6819
lfemur -29.4206 2.38438 -19.8658
ltibia 51.9299
lfoot -2.84192 -7.03803
ltoes -9.43786
